<mxfile host="app.diagrams.net" modified="2022-11-24T11:26:55.552Z" agent="5.0 (Windows)" etag="TjRo3u92zwGbkbNqG38v" version="20.6.0" type="github">
  <diagram id="j2bUN3y_L7LgQ2pKSUrk" name="Page-1">
    <mxGraphModel dx="1422" dy="772" grid="1" gridSize="10" guides="1" tooltips="1" connect="1" arrows="1" fold="1" page="1" pageScale="1" pageWidth="1600" pageHeight="1600" math="0" shadow="0">
      <root>
        <mxCell id="0" />
        <mxCell id="1" parent="0" />
        <mxCell id="iOelufz0E-B1Q4HS0Vj8-127" style="edgeStyle=elbowEdgeStyle;rounded=0;orthogonalLoop=1;jettySize=auto;elbow=vertical;html=1;exitX=0.5;exitY=1;exitDx=0;exitDy=0;dashed=1;fontFamily=Montserrat;fontSource=https%3A%2F%2Ffonts.googleapis.com%2Fcss%3Ffamily%3DMontserrat;fontSize=11;startArrow=none;startFill=0;endArrow=none;endFill=0;" parent="1" source="iOelufz0E-B1Q4HS0Vj8-7" target="iOelufz0E-B1Q4HS0Vj8-113" edge="1">
          <mxGeometry relative="1" as="geometry">
            <Array as="points">
              <mxPoint x="890" y="760" />
            </Array>
          </mxGeometry>
        </mxCell>
        <mxCell id="iOelufz0E-B1Q4HS0Vj8-7" value="10.0.2.0/24" style="swimlane;whiteSpace=wrap;html=1;fontFamily=Montserrat;fontSource=https%3A%2F%2Ffonts.googleapis.com%2Fcss%3Ffamily%3DMontserrat;fontSize=11;container=1;collapsible=0;" parent="1" vertex="1">
          <mxGeometry x="760" y="360" width="120" height="320" as="geometry" />
        </mxCell>
        <mxCell id="iOelufz0E-B1Q4HS0Vj8-101" value="..." style="rounded=0;whiteSpace=wrap;html=1;fontFamily=Montserrat;fontSource=https%3A%2F%2Ffonts.googleapis.com%2Fcss%3Ffamily%3DMontserrat;fontSize=11;" parent="iOelufz0E-B1Q4HS0Vj8-7" vertex="1">
          <mxGeometry x="30" y="240" width="60" height="40" as="geometry" />
        </mxCell>
        <mxCell id="iOelufz0E-B1Q4HS0Vj8-9" value="user" style="rounded=0;whiteSpace=wrap;html=1;fontFamily=Montserrat;fontSource=https%3A%2F%2Ffonts.googleapis.com%2Fcss%3Ffamily%3DMontserrat;fontSize=11;" parent="iOelufz0E-B1Q4HS0Vj8-7" vertex="1">
          <mxGeometry x="30" y="60" width="60" height="40" as="geometry" />
        </mxCell>
        <mxCell id="iOelufz0E-B1Q4HS0Vj8-67" value="user" style="rounded=0;whiteSpace=wrap;html=1;fontFamily=Montserrat;fontSource=https%3A%2F%2Ffonts.googleapis.com%2Fcss%3Ffamily%3DMontserrat;fontSize=11;" parent="iOelufz0E-B1Q4HS0Vj8-7" vertex="1">
          <mxGeometry x="30" y="120" width="60" height="40" as="geometry" />
        </mxCell>
        <mxCell id="iOelufz0E-B1Q4HS0Vj8-68" value="user" style="rounded=0;whiteSpace=wrap;html=1;fontFamily=Montserrat;fontSource=https%3A%2F%2Ffonts.googleapis.com%2Fcss%3Ffamily%3DMontserrat;fontSize=11;" parent="iOelufz0E-B1Q4HS0Vj8-7" vertex="1">
          <mxGeometry x="30" y="180" width="60" height="40" as="geometry" />
        </mxCell>
        <mxCell id="iOelufz0E-B1Q4HS0Vj8-125" style="edgeStyle=elbowEdgeStyle;rounded=0;orthogonalLoop=1;jettySize=auto;html=1;exitX=0.5;exitY=1;exitDx=0;exitDy=0;fontFamily=Montserrat;fontSource=https%3A%2F%2Ffonts.googleapis.com%2Fcss%3Ffamily%3DMontserrat;fontSize=11;startArrow=none;startFill=0;endArrow=none;endFill=0;dashed=1;elbow=vertical;" parent="1" source="iOelufz0E-B1Q4HS0Vj8-81" target="iOelufz0E-B1Q4HS0Vj8-113" edge="1">
          <mxGeometry relative="1" as="geometry">
            <Array as="points">
              <mxPoint x="790" y="760" />
            </Array>
          </mxGeometry>
        </mxCell>
        <mxCell id="iOelufz0E-B1Q4HS0Vj8-81" value="10.0.1.0/24" style="swimlane;whiteSpace=wrap;html=1;fontFamily=Montserrat;fontSource=https%3A%2F%2Ffonts.googleapis.com%2Fcss%3Ffamily%3DMontserrat;fontSize=11;container=1;collapsible=0;" parent="1" vertex="1">
          <mxGeometry x="600" y="360" width="120" height="320" as="geometry" />
        </mxCell>
        <mxCell id="iOelufz0E-B1Q4HS0Vj8-82" value="auth" style="rounded=0;whiteSpace=wrap;html=1;fontFamily=Montserrat;fontSource=https%3A%2F%2Ffonts.googleapis.com%2Fcss%3Ffamily%3DMontserrat;fontSize=11;" parent="iOelufz0E-B1Q4HS0Vj8-81" vertex="1">
          <mxGeometry x="30" y="60" width="60" height="40" as="geometry" />
        </mxCell>
        <mxCell id="iOelufz0E-B1Q4HS0Vj8-83" value="auth" style="rounded=0;whiteSpace=wrap;html=1;fontFamily=Montserrat;fontSource=https%3A%2F%2Ffonts.googleapis.com%2Fcss%3Ffamily%3DMontserrat;fontSize=11;" parent="iOelufz0E-B1Q4HS0Vj8-81" vertex="1">
          <mxGeometry x="30" y="120" width="60" height="40" as="geometry" />
        </mxCell>
        <mxCell id="iOelufz0E-B1Q4HS0Vj8-84" value="auth" style="rounded=0;whiteSpace=wrap;html=1;fontFamily=Montserrat;fontSource=https%3A%2F%2Ffonts.googleapis.com%2Fcss%3Ffamily%3DMontserrat;fontSize=11;" parent="iOelufz0E-B1Q4HS0Vj8-81" vertex="1">
          <mxGeometry x="30" y="180" width="60" height="40" as="geometry" />
        </mxCell>
        <mxCell id="iOelufz0E-B1Q4HS0Vj8-102" value="..." style="rounded=0;whiteSpace=wrap;html=1;fontFamily=Montserrat;fontSource=https%3A%2F%2Ffonts.googleapis.com%2Fcss%3Ffamily%3DMontserrat;fontSize=11;" parent="iOelufz0E-B1Q4HS0Vj8-81" vertex="1">
          <mxGeometry x="30" y="240" width="60" height="40" as="geometry" />
        </mxCell>
        <mxCell id="iOelufz0E-B1Q4HS0Vj8-128" style="edgeStyle=elbowEdgeStyle;rounded=0;orthogonalLoop=1;jettySize=auto;elbow=vertical;html=1;exitX=0.5;exitY=1;exitDx=0;exitDy=0;dashed=1;fontFamily=Montserrat;fontSource=https%3A%2F%2Ffonts.googleapis.com%2Fcss%3Ffamily%3DMontserrat;fontSize=11;startArrow=none;startFill=0;endArrow=none;endFill=0;" parent="1" source="iOelufz0E-B1Q4HS0Vj8-86" target="iOelufz0E-B1Q4HS0Vj8-113" edge="1">
          <mxGeometry relative="1" as="geometry" />
        </mxCell>
        <mxCell id="iOelufz0E-B1Q4HS0Vj8-86" value="10.0.3.0/24" style="swimlane;whiteSpace=wrap;html=1;fontFamily=Montserrat;fontSource=https%3A%2F%2Ffonts.googleapis.com%2Fcss%3Ffamily%3DMontserrat;fontSize=11;container=1;collapsible=0;startSize=23;" parent="1" vertex="1">
          <mxGeometry x="920" y="360" width="120" height="320" as="geometry" />
        </mxCell>
        <mxCell id="iOelufz0E-B1Q4HS0Vj8-85" value="..." style="rounded=0;whiteSpace=wrap;html=1;fontFamily=Montserrat;fontSource=https%3A%2F%2Ffonts.googleapis.com%2Fcss%3Ffamily%3DMontserrat;fontSize=11;" parent="iOelufz0E-B1Q4HS0Vj8-86" vertex="1">
          <mxGeometry x="30" y="240" width="60" height="40" as="geometry" />
        </mxCell>
        <mxCell id="iOelufz0E-B1Q4HS0Vj8-11" value="&lt;div&gt;prfs&lt;br&gt;&lt;/div&gt;" style="rounded=0;whiteSpace=wrap;html=1;fontFamily=Montserrat;fontSource=https%3A%2F%2Ffonts.googleapis.com%2Fcss%3Ffamily%3DMontserrat;fontSize=11;" parent="iOelufz0E-B1Q4HS0Vj8-86" vertex="1">
          <mxGeometry x="30" y="60" width="60" height="40" as="geometry" />
        </mxCell>
        <mxCell id="iOelufz0E-B1Q4HS0Vj8-70" value="&lt;div&gt;prfs&lt;br&gt;&lt;/div&gt;" style="rounded=0;whiteSpace=wrap;html=1;fontFamily=Montserrat;fontSource=https%3A%2F%2Ffonts.googleapis.com%2Fcss%3Ffamily%3DMontserrat;fontSize=11;" parent="iOelufz0E-B1Q4HS0Vj8-86" vertex="1">
          <mxGeometry x="30" y="120" width="60" height="40" as="geometry" />
        </mxCell>
        <mxCell id="iOelufz0E-B1Q4HS0Vj8-71" value="&lt;div&gt;prfs&lt;br&gt;&lt;/div&gt;" style="rounded=0;whiteSpace=wrap;html=1;fontFamily=Montserrat;fontSource=https%3A%2F%2Ffonts.googleapis.com%2Fcss%3Ffamily%3DMontserrat;fontSize=11;" parent="iOelufz0E-B1Q4HS0Vj8-86" vertex="1">
          <mxGeometry x="30" y="180" width="60" height="40" as="geometry" />
        </mxCell>
        <mxCell id="iOelufz0E-B1Q4HS0Vj8-129" style="edgeStyle=elbowEdgeStyle;rounded=0;orthogonalLoop=1;jettySize=auto;elbow=vertical;html=1;exitX=0.5;exitY=1;exitDx=0;exitDy=0;dashed=1;fontFamily=Montserrat;fontSource=https%3A%2F%2Ffonts.googleapis.com%2Fcss%3Ffamily%3DMontserrat;fontSize=11;startArrow=none;startFill=0;endArrow=none;endFill=0;" parent="1" source="iOelufz0E-B1Q4HS0Vj8-91" target="iOelufz0E-B1Q4HS0Vj8-113" edge="1">
          <mxGeometry relative="1" as="geometry">
            <Array as="points">
              <mxPoint x="1130" y="760" />
            </Array>
          </mxGeometry>
        </mxCell>
        <mxCell id="iOelufz0E-B1Q4HS0Vj8-91" value="10.0.4.0/24" style="swimlane;whiteSpace=wrap;html=1;fontFamily=Montserrat;fontSource=https%3A%2F%2Ffonts.googleapis.com%2Fcss%3Ffamily%3DMontserrat;fontSize=11;container=1;collapsible=0;" parent="1" vertex="1">
          <mxGeometry x="1080" y="360" width="120" height="320" as="geometry" />
        </mxCell>
        <mxCell id="iOelufz0E-B1Q4HS0Vj8-103" value="..." style="rounded=0;whiteSpace=wrap;html=1;fontFamily=Montserrat;fontSource=https%3A%2F%2Ffonts.googleapis.com%2Fcss%3Ffamily%3DMontserrat;fontSize=11;" parent="iOelufz0E-B1Q4HS0Vj8-91" vertex="1">
          <mxGeometry x="30" y="240" width="60" height="40" as="geometry" />
        </mxCell>
        <mxCell id="iOelufz0E-B1Q4HS0Vj8-13" value="&lt;div&gt;auct&lt;br&gt;&lt;/div&gt;" style="rounded=0;whiteSpace=wrap;html=1;fontFamily=Montserrat;fontSource=https%3A%2F%2Ffonts.googleapis.com%2Fcss%3Ffamily%3DMontserrat;fontSize=11;" parent="iOelufz0E-B1Q4HS0Vj8-91" vertex="1">
          <mxGeometry x="30" y="60" width="60" height="40" as="geometry" />
        </mxCell>
        <mxCell id="iOelufz0E-B1Q4HS0Vj8-75" value="&lt;div&gt;auct&lt;br&gt;&lt;/div&gt;" style="rounded=0;whiteSpace=wrap;html=1;fontFamily=Montserrat;fontSource=https%3A%2F%2Ffonts.googleapis.com%2Fcss%3Ffamily%3DMontserrat;fontSize=11;" parent="iOelufz0E-B1Q4HS0Vj8-91" vertex="1">
          <mxGeometry x="30" y="120" width="60" height="40" as="geometry" />
        </mxCell>
        <mxCell id="iOelufz0E-B1Q4HS0Vj8-76" value="&lt;div&gt;auct&lt;br&gt;&lt;/div&gt;" style="rounded=0;whiteSpace=wrap;html=1;fontFamily=Montserrat;fontSource=https%3A%2F%2Ffonts.googleapis.com%2Fcss%3Ffamily%3DMontserrat;fontSize=11;" parent="iOelufz0E-B1Q4HS0Vj8-91" vertex="1">
          <mxGeometry x="30" y="180" width="60" height="40" as="geometry" />
        </mxCell>
        <mxCell id="iOelufz0E-B1Q4HS0Vj8-130" style="edgeStyle=elbowEdgeStyle;rounded=0;orthogonalLoop=1;jettySize=auto;elbow=vertical;html=1;exitX=0.5;exitY=1;exitDx=0;exitDy=0;dashed=1;fontFamily=Montserrat;fontSource=https%3A%2F%2Ffonts.googleapis.com%2Fcss%3Ffamily%3DMontserrat;fontSize=11;startArrow=none;startFill=0;endArrow=none;endFill=0;" parent="1" source="iOelufz0E-B1Q4HS0Vj8-96" target="iOelufz0E-B1Q4HS0Vj8-113" edge="1">
          <mxGeometry relative="1" as="geometry">
            <Array as="points">
              <mxPoint x="1270" y="760" />
            </Array>
          </mxGeometry>
        </mxCell>
        <mxCell id="iOelufz0E-B1Q4HS0Vj8-96" value="10.0.x.0/24" style="swimlane;whiteSpace=wrap;html=1;fontFamily=Montserrat;fontSource=https%3A%2F%2Ffonts.googleapis.com%2Fcss%3Ffamily%3DMontserrat;fontSize=11;container=1;collapsible=0;" parent="1" vertex="1">
          <mxGeometry x="1240" y="360" width="120" height="320" as="geometry" />
        </mxCell>
        <mxCell id="iOelufz0E-B1Q4HS0Vj8-104" value="..." style="rounded=0;whiteSpace=wrap;html=1;fontFamily=Montserrat;fontSource=https%3A%2F%2Ffonts.googleapis.com%2Fcss%3Ffamily%3DMontserrat;fontSize=11;" parent="iOelufz0E-B1Q4HS0Vj8-96" vertex="1">
          <mxGeometry x="30" y="240" width="60" height="40" as="geometry" />
        </mxCell>
        <mxCell id="iOelufz0E-B1Q4HS0Vj8-15" value="&lt;div&gt;other&lt;br&gt;&lt;/div&gt;" style="rounded=0;whiteSpace=wrap;html=1;fontFamily=Montserrat;fontSource=https%3A%2F%2Ffonts.googleapis.com%2Fcss%3Ffamily%3DMontserrat;fontSize=11;" parent="iOelufz0E-B1Q4HS0Vj8-96" vertex="1">
          <mxGeometry x="30" y="60" width="60" height="40" as="geometry" />
        </mxCell>
        <mxCell id="iOelufz0E-B1Q4HS0Vj8-78" value="&lt;div&gt;other&lt;br&gt;&lt;/div&gt;" style="rounded=0;whiteSpace=wrap;html=1;fontFamily=Montserrat;fontSource=https%3A%2F%2Ffonts.googleapis.com%2Fcss%3Ffamily%3DMontserrat;fontSize=11;" parent="iOelufz0E-B1Q4HS0Vj8-96" vertex="1">
          <mxGeometry x="30" y="120" width="60" height="40" as="geometry" />
        </mxCell>
        <mxCell id="iOelufz0E-B1Q4HS0Vj8-79" value="&lt;div&gt;other&lt;br&gt;&lt;/div&gt;" style="rounded=0;whiteSpace=wrap;html=1;fontFamily=Montserrat;fontSource=https%3A%2F%2Ffonts.googleapis.com%2Fcss%3Ffamily%3DMontserrat;fontSize=11;" parent="iOelufz0E-B1Q4HS0Vj8-96" vertex="1">
          <mxGeometry x="30" y="180" width="60" height="40" as="geometry" />
        </mxCell>
        <mxCell id="iOelufz0E-B1Q4HS0Vj8-110" style="rounded=0;orthogonalLoop=1;jettySize=auto;html=1;exitX=1;exitY=0.5;exitDx=0;exitDy=0;fontFamily=Montserrat;fontSource=https%3A%2F%2Ffonts.googleapis.com%2Fcss%3Ffamily%3DMontserrat;fontSize=11;endArrow=classic;endFill=1;startArrow=none;startFill=0;" parent="1" source="iOelufz0E-B1Q4HS0Vj8-108" edge="1">
          <mxGeometry relative="1" as="geometry">
            <mxPoint x="560" y="520" as="targetPoint" />
          </mxGeometry>
        </mxCell>
        <mxCell id="iOelufz0E-B1Q4HS0Vj8-108" value="Each of these servers send request (that contains average cpu load within 1s) to ORIGIN load balancer every 1s to update it&#39;s availability index" style="rounded=0;whiteSpace=wrap;html=1;shadow=0;glass=0;sketch=0;fontFamily=Montserrat;fontSource=https%3A%2F%2Ffonts.googleapis.com%2Fcss%3Ffamily%3DMontserrat;fontSize=11;" parent="1" vertex="1">
          <mxGeometry x="240" y="440" width="260" height="160" as="geometry" />
        </mxCell>
        <mxCell id="iOelufz0E-B1Q4HS0Vj8-113" value="10.0.0.0/24" style="swimlane;whiteSpace=wrap;html=1;fontFamily=Montserrat;fontSource=https%3A%2F%2Ffonts.googleapis.com%2Fcss%3Ffamily%3DMontserrat;fontSize=11;container=1;collapsible=0;startSize=23;" parent="1" vertex="1">
          <mxGeometry x="600" y="760" width="760" height="180" as="geometry" />
        </mxCell>
        <mxCell id="iOelufz0E-B1Q4HS0Vj8-114" value="origin load balancer, reverse proxy" style="rounded=0;whiteSpace=wrap;html=1;fontFamily=Montserrat;fontSource=https%3A%2F%2Ffonts.googleapis.com%2Fcss%3Ffamily%3DMontserrat;fontSize=11;" parent="iOelufz0E-B1Q4HS0Vj8-113" vertex="1">
          <mxGeometry x="50" y="60" width="60" height="80" as="geometry" />
        </mxCell>
        <mxCell id="iOelufz0E-B1Q4HS0Vj8-117" value="..." style="rounded=0;whiteSpace=wrap;html=1;fontFamily=Montserrat;fontSource=https%3A%2F%2Ffonts.googleapis.com%2Fcss%3Ffamily%3DMontserrat;fontSize=11;" parent="iOelufz0E-B1Q4HS0Vj8-113" vertex="1">
          <mxGeometry x="650" y="60" width="60" height="80" as="geometry" />
        </mxCell>
        <mxCell id="iOelufz0E-B1Q4HS0Vj8-137" value="load balancer, reverse proxy" style="rounded=0;whiteSpace=wrap;html=1;fontFamily=Montserrat;fontSource=https%3A%2F%2Ffonts.googleapis.com%2Fcss%3Ffamily%3DMontserrat;fontSize=11;" parent="iOelufz0E-B1Q4HS0Vj8-113" vertex="1">
          <mxGeometry x="150" y="60" width="60" height="80" as="geometry" />
        </mxCell>
        <mxCell id="iOelufz0E-B1Q4HS0Vj8-138" value="load balancer, reverse proxy" style="rounded=0;whiteSpace=wrap;html=1;fontFamily=Montserrat;fontSource=https%3A%2F%2Ffonts.googleapis.com%2Fcss%3Ffamily%3DMontserrat;fontSize=11;" parent="iOelufz0E-B1Q4HS0Vj8-113" vertex="1">
          <mxGeometry x="250" y="60" width="60" height="80" as="geometry" />
        </mxCell>
        <mxCell id="iOelufz0E-B1Q4HS0Vj8-139" value="load balancer, reverse proxy" style="rounded=0;whiteSpace=wrap;html=1;fontFamily=Montserrat;fontSource=https%3A%2F%2Ffonts.googleapis.com%2Fcss%3Ffamily%3DMontserrat;fontSize=11;" parent="iOelufz0E-B1Q4HS0Vj8-113" vertex="1">
          <mxGeometry x="350" y="60" width="60" height="80" as="geometry" />
        </mxCell>
        <mxCell id="iOelufz0E-B1Q4HS0Vj8-140" value="load balancer, reverse proxy" style="rounded=0;whiteSpace=wrap;html=1;fontFamily=Montserrat;fontSource=https%3A%2F%2Ffonts.googleapis.com%2Fcss%3Ffamily%3DMontserrat;fontSize=11;" parent="iOelufz0E-B1Q4HS0Vj8-113" vertex="1">
          <mxGeometry x="450" y="60" width="60" height="80" as="geometry" />
        </mxCell>
        <mxCell id="iOelufz0E-B1Q4HS0Vj8-141" value="load balancer, reverse proxy" style="rounded=0;whiteSpace=wrap;html=1;fontFamily=Montserrat;fontSource=https%3A%2F%2Ffonts.googleapis.com%2Fcss%3Ffamily%3DMontserrat;fontSize=11;" parent="iOelufz0E-B1Q4HS0Vj8-113" vertex="1">
          <mxGeometry x="550" y="60" width="60" height="80" as="geometry" />
        </mxCell>
        <mxCell id="iOelufz0E-B1Q4HS0Vj8-142" style="rounded=0;orthogonalLoop=1;jettySize=auto;html=1;exitX=1;exitY=0.5;exitDx=0;exitDy=0;fontFamily=Montserrat;fontSource=https%3A%2F%2Ffonts.googleapis.com%2Fcss%3Ffamily%3DMontserrat;fontSize=11;endArrow=classic;endFill=1;startArrow=none;startFill=0;" parent="1" source="iOelufz0E-B1Q4HS0Vj8-143" edge="1">
          <mxGeometry relative="1" as="geometry">
            <mxPoint x="560" y="850" as="targetPoint" />
          </mxGeometry>
        </mxCell>
        <mxCell id="iOelufz0E-B1Q4HS0Vj8-143" value="This section does reverse proxy and load balancing.&lt;br&gt;&lt;br&gt;Load balance software contains lists for each type of servers and redirects user&#39;s requests based on server availability index.&lt;br&gt;&lt;br&gt;Arrays contain ServerStatistics object.&lt;br&gt;The ServerStatistics object represents the server:&lt;br&gt; - server type,&lt;br&gt;- server ip,&lt;br&gt;- server average cpu load 1s&lt;br&gt;- server average cpu load 5s&lt;br&gt;- server average cpu load 15s&lt;br&gt;&lt;div&gt;- server state (down, up)&lt;br&gt;&lt;/div&gt;&lt;div&gt;&lt;br&gt;&lt;/div&gt;These lists are synchronized through all the load balancers." style="rounded=0;whiteSpace=wrap;html=1;shadow=0;glass=0;sketch=0;fontFamily=Montserrat;fontSource=https%3A%2F%2Ffonts.googleapis.com%2Fcss%3Ffamily%3DMontserrat;fontSize=11;" parent="1" vertex="1">
          <mxGeometry x="240" y="710" width="260" height="280" as="geometry" />
        </mxCell>
      </root>
    </mxGraphModel>
  </diagram>
</mxfile>
